<?xml version="1.0" encoding="utf-8"?>
<!-- Generator: Adobe Illustrator 21.0.2, SVG Export Plug-In . SVG Version: 6.00 Build 0)  -->
<svg version="1.1" id="Calque_1" xmlns="http://www.w3.org/2000/svg" xmlns:xlink="http://www.w3.org/1999/xlink" x="0px" y="0px"
	 viewBox="0 0 300 300" style="enable-background:new 0 0 300 300;" xml:space="preserve">
<style type="text/css">
	.st0{fill:#29235C;}
	.st1{fill:none;stroke:#29235C;stroke-width:5;stroke-linecap:round;stroke-linejoin:round;stroke-miterlimit:10;}
</style>
<g>
	<path class="st0" d="M149.6,162.1c1.6,0,3.2,0.7,4.2,2c1.1,1.3,1.5,2.9,1.2,4.6c-0.4,2.3-2.2,4.1-4.5,4.5c-0.3,0.1-0.7,0.1-1,0.1
		c-1.6,0-3.2-0.7-4.2-2c-1.1-1.3-1.5-2.9-1.2-4.6c0.4-2.3,2.2-4.1,4.5-4.5C149,162.1,149.3,162.1,149.6,162.1 M149.6,157.1
		c-0.6,0-1.2,0-1.8,0.1c-4.4,0.7-7.9,4.2-8.6,8.6c-1.1,6.6,4,12.4,10.4,12.4c0.6,0,1.2,0,1.8-0.1c4.4-0.7,7.9-4.3,8.6-8.6
		C161.1,162.8,156,157.1,149.6,157.1L149.6,157.1z"/>
</g>
<path class="st1" d="M118.2,141.3c1.5-1.2,3.4-1.9,5.3-1.9h52.2c5.1,0,9.3,4.6,9.3,10.2v34.5c0,5.6-4.2,10.2-9.3,10.2h-52.2
	c-5.1,0-9.3-4.6-9.3-10.2v-34.5C114.3,146.2,115.8,143.2,118.2,141.3"/>
<path class="st1" d="M182.4,142.5"/>
<path class="st1" d="M115.9,142.5c0-21.4,14.9-38.8,33.2-38.8c13.5,0,25.2,9.4,30.4,22.9"/>
</svg>
