<?xml version="1.0" encoding="utf-8"?>
<!-- Generator: Adobe Illustrator 21.0.2, SVG Export Plug-In . SVG Version: 6.00 Build 0)  -->
<svg version="1.1" id="Calque_1" xmlns="http://www.w3.org/2000/svg" xmlns:xlink="http://www.w3.org/1999/xlink" x="0px" y="0px"
	 viewBox="0 0 300 300" style="enable-background:new 0 0 300 300;" xml:space="preserve">
<style type="text/css">
	.st0{fill:#29235C;}
	.st1{fill:none;stroke:#29235C;stroke-width:5;stroke-linecap:round;stroke-linejoin:round;stroke-miterlimit:10;}
</style>
<g>
	<g>
		<path class="st0" d="M199.4,124.1c1.9,0,3.5,1.6,3.5,3.5v39.6v7v13c-5.5-4.9-13.1-9.5-22.5-9.5h-64.1c-1.9,0-3.5-1.6-3.5-3.5
			v-46.7c0-1.9,1.6-3.5,3.5-3.5H199.4 M199.4,119.1h-83c-4.7,0-8.5,3.8-8.5,8.5v46.7c0,4.7,3.8,8.5,8.5,8.5h64.1
			c13.4,0,23,11.7,26.3,16.3c0.1,0.2,0.3,0.3,0.5,0.3c0.3,0,0.7-0.3,0.7-0.7v-24.4v-7v-39.6C207.9,122.9,204.1,119.1,199.4,119.1
			L199.4,119.1z"/>
	</g>
	<g>
		<path class="st0" d="M130.1,148.1c1.5,0,2.9,0.6,3.8,1.8c1,1.1,1.4,2.6,1.1,4.1c-0.3,2-2,3.7-4.1,4.1c-0.3,0-0.6,0.1-0.9,0.1
			c-1.5,0-2.9-0.6-3.8-1.8c-1-1.1-1.4-2.6-1.1-4.1c0.3-2,2-3.7,4.1-4.1C129.5,148.1,129.8,148.1,130.1,148.1 M130.1,143.1
			c-0.6,0-1.1,0-1.7,0.1c-4.1,0.7-7.5,4-8.2,8.2c-1,6.3,3.8,11.7,9.9,11.7c0.6,0,1.1,0,1.7-0.1c4.1-0.7,7.5-4,8.2-8.2
			C141,148.5,136.2,143.1,130.1,143.1L130.1,143.1z"/>
	</g>
	<g>
		<path class="st0" d="M158.2,148.1L158.2,148.1c1.5,0,2.9,0.6,3.8,1.8c1,1.1,1.4,2.6,1.1,4.1c-0.3,2-2,3.7-4.1,4.1
			c-0.3,0-0.6,0.1-0.9,0.1c-1.5,0-2.9-0.6-3.8-1.8c-1-1.1-1.4-2.6-1.1-4.1c0.3-2,2-3.7,4.1-4.1C157.6,148.1,157.9,148.1,158.2,148.1
			 M158.2,143.1c-0.6,0-1.1,0-1.7,0.1c-4.1,0.7-7.5,4-8.2,8.2c-1,6.3,3.8,11.7,9.9,11.7c0.6,0,1.1,0,1.7-0.1c4.1-0.7,7.5-4,8.2-8.2
			C169.1,148.5,164.3,143.1,158.2,143.1L158.2,143.1z"/>
	</g>
	<g>
		<path class="st0" d="M185.9,148.1L185.9,148.1c1.5,0,2.9,0.6,3.8,1.8c1,1.1,1.4,2.6,1.1,4.1c-0.3,2-2,3.7-4.1,4.1
			c-0.3,0-0.6,0.1-0.9,0.1c-1.5,0-2.9-0.6-3.8-1.8c-1-1.1-1.4-2.6-1.1-4.1c0.3-2,2-3.7,4.1-4.1C185.4,148.1,185.7,148.1,185.9,148.1
			 M185.9,143.1c-0.6,0-1.1,0-1.7,0.1c-4.1,0.7-7.5,4-8.2,8.2c-1,6.3,3.8,11.7,9.9,11.7c0.6,0,1.1,0,1.7-0.1c4.1-0.7,7.5-4,8.2-8.2
			C196.8,148.5,192,143.1,185.9,143.1L185.9,143.1z"/>
	</g>
	<path class="st1" d="M194.1,119.4l0.1-8.2c0-4.7-3.8-8.5-8.5-8.5h-83c-4.7,0-8.5,3.8-8.5,8.5v39.6v7v26.5c0,0,5.2-8.8,14.1-14.1"/>
</g>
</svg>
