<?xml version="1.0" encoding="utf-8"?>
<!-- Generator: Adobe Illustrator 21.0.2, SVG Export Plug-In . SVG Version: 6.00 Build 0)  -->
<svg version="1.1" id="Calque_1" xmlns="http://www.w3.org/2000/svg" xmlns:xlink="http://www.w3.org/1999/xlink" x="0px" y="0px"
	 viewBox="0 0 300 300" style="enable-background:new 0 0 300 300;" xml:space="preserve">
<style type="text/css">
	.st0{fill:none;stroke:#29235C;stroke-width:5;stroke-linecap:round;stroke-linejoin:round;stroke-miterlimit:10;}
</style>
<g>
	<path class="st0" d="M162.3,153.6c-11.9,1.9-22-8.2-20-20c1.2-7.2,7-13,14.1-14.1c11.9-1.9,22,8.2,20,20
		C175.3,146.6,169.5,152.4,162.3,153.6z"/>
	<line class="st0" x1="142.2" y1="133.5" x2="142.2" y2="199.8"/>
	<path class="st0" d="M141.7,134.8c-11.4,0.8-20.1-9-18.2-20.6c1.2-7.4,7.2-13.3,14.6-14.6c11.7-1.9,21.7,7.5,20.8,19"/>
	<line class="st0" x1="123.3" y1="118.6" x2="123.3" y2="184.9"/>
	<path class="st0" d="M174.9,132.5c0,0-9.4,9.8-6.6,19c2.2-0.7,6.4-15.2,6.4-15.2"/>
</g>
</svg>
