<?xml version="1.0" encoding="utf-8"?>
<!-- Generator: Adobe Illustrator 21.0.2, SVG Export Plug-In . SVG Version: 6.00 Build 0)  -->
<svg version="1.1" id="Calque_1" xmlns="http://www.w3.org/2000/svg" xmlns:xlink="http://www.w3.org/1999/xlink" x="0px" y="0px"
	 viewBox="0 0 300 300" style="enable-background:new 0 0 300 300;" xml:space="preserve">
<style type="text/css">
	.st0{fill:#29235C;}
	.st1{fill:none;stroke:#29235C;stroke-width:5;stroke-linecap:round;stroke-linejoin:round;stroke-miterlimit:10;}
</style>
<g>
	<path class="st0" d="M165.7,121.7c1.2,0,2.3,0.5,3,1.4c0.4,0.5,1.2,1.6,0.9,3.3c-0.3,1.6-1.6,2.9-3.2,3.2c-0.2,0-0.5,0.1-0.7,0.1
		c-1.2,0-2.3-0.5-3-1.4c-0.4-0.5-1.2-1.6-0.9-3.3c0.3-1.6,1.6-2.9,3.2-3.2C165.3,121.7,165.5,121.7,165.7,121.7 M165.7,116.7
		c-0.5,0-1,0-1.5,0.1c-3.7,0.6-6.7,3.6-7.3,7.3c-0.9,5.6,3.4,10.5,8.9,10.5c0.5,0,1,0,1.5-0.1c3.7-0.6,6.7-3.6,7.3-7.3
		C175.5,121.6,171.2,116.7,165.7,116.7L165.7,116.7z"/>
</g>
<path class="st1" d="M143.5,166.6c15.2,15.4,29.9-0.3,29.9-0.3l0-15.2l0.1-0.1l4.4,0c4.8,0,8.7-3.9,8.7-8.7v-27.9
	c0-4.8-3.9-8.7-8.7-8.7h-34"/>
<g>
	<path class="st0" d="M135.2,136.1c1.2,0,2.3,0.5,3,1.4c0.4,0.5,1.2,1.6,0.9,3.3c-0.3,1.6-1.6,2.9-3.2,3.2c-0.2,0-0.5,0.1-0.7,0.1
		c-1.2,0-2.3-0.5-3-1.4c-0.4-0.5-1.2-1.6-0.9-3.3c0.3-1.6,1.6-2.9,3.2-3.2C134.7,136.1,134.9,136.1,135.2,136.1 M135.2,131.1
		c-0.5,0-1,0-1.5,0.1c-3.7,0.6-6.7,3.6-7.3,7.3c-0.9,5.6,3.4,10.5,8.9,10.5c0.5,0,1,0,1.5-0.1c3.7-0.6,6.7-3.6,7.3-7.3
		C144.9,136,140.6,131.1,135.2,131.1L135.2,131.1z"/>
</g>
<path class="st1" d="M112.9,181c15.2,15.4,29.9-0.3,29.9-0.3l0-15.2l0.1-0.1l4.4,0c4.8,0,8.7-3.9,8.7-8.7v-27.9
	c0-4.8-3.9-8.7-8.7-8.7h-34"/>
</svg>
