<?xml version="1.0" encoding="utf-8"?>
<!-- Generator: Adobe Illustrator 21.0.2, SVG Export Plug-In . SVG Version: 6.00 Build 0)  -->
<svg version="1.1" id="Calque_1" xmlns="http://www.w3.org/2000/svg" xmlns:xlink="http://www.w3.org/1999/xlink" x="0px" y="0px"
	 viewBox="0 0 300 300" style="enable-background:new 0 0 300 300;" xml:space="preserve">
<style type="text/css">
	.st0{fill:#29235C;}
</style>
<g>
	<g>
		<path class="st0" d="M201.4,104.4c3,0,5.5,2.5,5.5,5.5V159v8.7v18.9c-6.7-6.5-16.6-13.4-29-13.4H98.6c-3,0-5.5-2.5-5.5-5.5v-57.8
			c0-3,2.5-5.5,5.5-5.5H201.4 M201.4,99.4H98.6c-5.8,0-10.5,4.7-10.5,10.5v57.8c0,5.8,4.7,10.5,10.5,10.5h79.4
			c16.6,0,28.5,14.5,32.6,20.1c0.2,0.2,0.4,0.3,0.7,0.3c0.4,0,0.8-0.3,0.8-0.8v-30.2V159v-49.1C211.9,104.1,207.2,99.4,201.4,99.4
			L201.4,99.4z"/>
	</g>
	<g>
		<path class="st0" d="M115.6,134.1c2.2,0,4.2,1,5.6,2.6c1.4,1.7,2,3.8,1.7,6.1c-0.5,3-3,5.5-6,6c-0.4,0.1-0.9,0.1-1.3,0.1
			c-2.2,0-4.2-1-5.6-2.6c-1.4-1.7-2-3.8-1.6-6.1c0.5-3,3-5.5,6-6C114.7,134.2,115.1,134.1,115.6,134.1 M115.6,129.1
			c-0.7,0-1.4,0.1-2.1,0.2c-5.1,0.8-9.3,5-10.1,10.1c-1.3,7.8,4.7,14.5,12.2,14.5c0.7,0,1.4-0.1,2.1-0.2c5.1-0.8,9.3-5,10.1-10.1
			C129.1,135.9,123.1,129.1,115.6,129.1L115.6,129.1z"/>
	</g>
	<g>
		<path class="st0" d="M150.4,134.1L150.4,134.1c2.2,0,4.2,1,5.6,2.6c1.4,1.7,2,3.8,1.6,6.1c-0.5,3-3,5.5-6,6
			c-0.4,0.1-0.9,0.1-1.3,0.1c-2.2,0-4.2-1-5.6-2.6c-1.4-1.7-2-3.8-1.6-6.1c0.5-3,3-5.5,6-6C149.5,134.2,150,134.1,150.4,134.1
			 M150.4,129.1c-0.7,0-1.4,0.1-2.1,0.2c-5.1,0.8-9.3,5-10.1,10.1c-1.3,7.8,4.7,14.5,12.2,14.5c0.7,0,1.4-0.1,2.1-0.2
			c5.1-0.8,9.3-5,10.1-10.1C163.9,135.9,157.9,129.1,150.4,129.1L150.4,129.1z"/>
	</g>
	<g>
		<path class="st0" d="M184.8,134.1L184.8,134.1c2.2,0,4.2,1,5.6,2.6c1.4,1.7,2,3.8,1.6,6.1c-0.5,3-3,5.5-6,6
			c-0.4,0.1-0.9,0.1-1.3,0.1c-2.2,0-4.2-1-5.6-2.6c-1.4-1.7-2-3.8-1.6-6.1c0.5-3,3-5.5,6-6C183.9,134.2,184.3,134.1,184.8,134.1
			 M184.8,129.1c-0.7,0-1.4,0.1-2.1,0.2c-5.1,0.8-9.3,5-10.1,10.1c-1.3,7.8,4.7,14.5,12.2,14.5c0.7,0,1.4-0.1,2.1-0.2
			c5.1-0.8,9.3-5,10.1-10.1C198.3,135.9,192.3,129.1,184.8,129.1L184.8,129.1z"/>
	</g>
</g>
</svg>
