<?xml version="1.0" encoding="utf-8"?>
<!-- Generator: Adobe Illustrator 21.0.2, SVG Export Plug-In . SVG Version: 6.00 Build 0)  -->
<svg version="1.1" id="Calque_1" xmlns="http://www.w3.org/2000/svg" xmlns:xlink="http://www.w3.org/1999/xlink" x="0px" y="0px"
	 viewBox="0 0 300 300" style="enable-background:new 0 0 300 300;" xml:space="preserve">
<style type="text/css">
	.st0{fill:none;stroke:#29235C;stroke-width:5;stroke-linecap:round;stroke-linejoin:round;stroke-miterlimit:10;}
</style>
<path class="st0" d="M194.1,190.1H120c-6.6,0-12-5.4-12-12v-37.7c0-6.6,5.4-12,12-12h74.1c6.6,0,12,5.4,12,12v37.7
	C206.1,184.7,200.7,190.1,194.1,190.1z"/>
<line class="st0" x1="124.1" y1="147.2" x2="189.5" y2="147.2"/>
<line class="st0" x1="124.2" y1="156.7" x2="189.6" y2="156.7"/>
<path class="st0" d="M107.8,171H104c-5.4,0-9.9-4.4-9.9-9.9v-41.9c0-5.4,4.4-9.9,9.9-9.9h78.3c5.4,0,9.9,4.4,9.9,9.9v9.1"/>
</svg>
