<?xml version="1.0" encoding="utf-8"?>
<!-- Generator: Adobe Illustrator 21.0.2, SVG Export Plug-In . SVG Version: 6.00 Build 0)  -->
<svg version="1.1" id="Calque_1" xmlns="http://www.w3.org/2000/svg" xmlns:xlink="http://www.w3.org/1999/xlink" x="0px" y="0px"
	 viewBox="0 0 300 300" style="enable-background:new 0 0 300 300;" xml:space="preserve">
<style type="text/css">
	.st0{fill:#29235C;}
	.st1{fill:none;stroke:#29235C;stroke-width:5;stroke-linecap:round;stroke-linejoin:round;stroke-miterlimit:10;}
</style>
<g>
	<path class="st0" d="M150.9,122.1c1.8,0,3.4,0.8,4.6,2.1c1.2,1.4,1.6,3.1,1.3,4.9c-0.4,2.5-2.4,4.5-4.9,4.9
		c-0.4,0.1-0.7,0.1-1.1,0.1c-1.8,0-3.4-0.8-4.6-2.1c-1.2-1.4-1.6-3.1-1.3-4.9c0.4-2.5,2.4-4.5,4.9-4.9
		C150.2,122.2,150.5,122.1,150.9,122.1 M150.9,117.1c-0.6,0-1.2,0-1.9,0.2c-4.6,0.7-8.2,4.4-9,9c-1.1,6.9,4.2,12.9,10.9,12.9
		c0.6,0,1.2,0,1.9-0.2c4.6-0.7,8.2-4.4,9-9C162.9,123.1,157.6,117.1,150.9,117.1L150.9,117.1z"/>
</g>
<path class="st1" d="M123.6,178.3c18.6,18.9,36.6-0.3,36.6-0.3l0-18.7l0.1-0.1l5.4,0c5.9,0,10.6-4.8,10.6-10.6v-34.2
	c0-5.9-4.8-10.6-10.6-10.6H124"/>
</svg>
